<svg xmlns="http://www.w3.org/2000/svg" width="32" height="36" viewBox="0 0 32 36">
    <g fill="none" fill-rule="evenodd" stroke="#2140D2" stroke-linecap="round" stroke-linejoin="round" stroke-width="2">
        <path d="M13.236 1L9 17.145h4.905L11.453 29 21.58 11.322h-4.855L23 1zM9 2C4.248 4.46 1 9.427 1 15.153 1 20 3.326 24.301 6.92 27M27.217 5.242A15.088 15.088 0 0 0 27 5M31 13c-.288-1.786-.98-3.472-2-5M16 30c7.284 0 13.36-5.312 14.764-12.373A15.836 15.836 0 0 0 31 16M10 35h12"/>
    </g>
</svg>
