<svg xmlns="http://www.w3.org/2000/svg" xmlns:xlink="http://www.w3.org/1999/xlink" width="304" height="267" viewBox="0 0 304 267">
    <defs>
        <path id="b" d="M32 254h288a8 8 0 0 1 8 8v242.718a8 8 0 0 1-8 8l-4.109-5.376a1 1 0 0 0-1.635.066l-3.293 5.112a1 1 0 0 1-1.673.013l-3.388-5.081a1 1 0 0 0-1.661-.004l-3.433 5.092a1 1 0 0 1-1.672-.02l-3.194-4.992a1 1 0 0 0-1.684 0l-3.2 5a1 1 0 0 1-1.668.024l-3.48-5.106a1 1 0 0 0-1.662.014l-3.334 5.074a1 1 0 0 1-1.67.002l-3.343-5.061a1 1 0 0 0-1.669 0l-3.344 5.066a1 1 0 0 1-1.668.001l-3.35-5.053a1 1 0 0 0-1.674.011l-3.221 5.013a1 1 0 0 1-1.675.012l-3.343-5.044a1 1 0 0 0-1.672.007l-3.286 5.054a1 1 0 0 1-1.665.017l-3.46-5.092a1 1 0 0 0-1.671.025l-3.2 5.021a1 1 0 0 1-1.674.02l-3.388-5.05a1 1 0 0 0-1.675.022l-3.183 5.018a1 1 0 0 1-1.669.03l-3.503-5.108a1 1 0 0 0-1.662.02l-3.306 5.071a1 1 0 0 1-1.668.012l-3.414-5.085a1 1 0 0 0-1.667.01l-3.309 5.056a1 1 0 0 1-1.671.004l-3.326-5.038a1 1 0 0 0-1.677.012l-3.21 5.015a1 1 0 0 1-1.67.02l-3.428-5.077a1 1 0 0 0-1.668.016l-3.268 5.047a1 1 0 0 1-1.67.013l-3.394-5.066a1 1 0 0 0-1.672.015l-3.245 5.033a1 1 0 0 1-1.672.014l-3.391-5.072a1 1 0 0 0-1.668.007l-3.322 5.06a1 1 0 0 1-1.671 0l-3.322-5.046a1 1 0 0 0-1.673.004l-3.29 5.045a1 1 0 0 1-1.668.01l-3.407-5.085a1 1 0 0 0-1.665.005l-3.35 5.071a1 1 0 0 1-1.67-.002l-3.31-5.039a1 1 0 0 0-1.676.007l-3.239 5.02a1 1 0 0 1-1.671.014l-3.38-5.061a1 1 0 0 0-1.671.01l-3.275 5.05a1 1 0 0 1-1.668.016l-3.442-5.093a1 1 0 0 0-1.666.013l-3.302 5.059a1 1 0 0 1-1.671.006l-3.35-5.054a1 1 0 0 0-1.672.008l-3.266 5.032a1 1 0 0 1-1.673.007l-3.33-5.04a1 1 0 0 0-1.674.01l-3.246 5.035a1 1 0 0 1-1.667.021l-3.47-5.095a1 1 0 0 0-1.668.023L91 512.51a1 1 0 0 1-1.677.01l-3.33-5.047a1 1 0 0 0-1.67-.001l-3.361 5.079a1 1 0 0 1-1.664.005l-3.408-5.076a1 1 0 0 0-1.673.02l-3.189 5.007a1 1 0 0 1-1.675.018l-3.373-5.058a1 1 0 0 0-1.668.006l-3.326 5.064a1 1 0 0 1-1.67.005l-3.378-5.083a1 1 0 0 0-1.664-.002l-3.4 5.087a1 1 0 0 1-1.668-.008l-3.373-5.155a1 1 0 0 0-1.626-.067L40 512.718a8 8 0 0 1-8-8V254z"/>
        <filter id="a" width="104.7%" height="105.4%" x="-2.4%" y="-1.9%" filterUnits="objectBoundingBox">
            <feOffset dy="2" in="SourceAlpha" result="shadowOffsetOuter1"/>
            <feGaussianBlur in="shadowOffsetOuter1" result="shadowBlurOuter1" stdDeviation="2"/>
            <feColorMatrix in="shadowBlurOuter1" values="0 0 0 0 0 0 0 0 0 0 0 0 0 0 0 0 0 0 0.2 0"/>
        </filter>
    </defs>
    <g fill="none" fill-rule="evenodd" transform="translate(-28 -252)">
        <use fill="#000" filter="url(#a)" xlink:href="#b"/>
        <use fill="#FFF" xlink:href="#b"/>
    </g>
</svg>
